<svg xmlns="http://www.w3.org/2000/svg" xmlns:xlink="http://www.w3.org/1999/xlink" width="1920" height="1080" viewBox="0 0 1920 1080">
  <defs>
    <linearGradient id="linear-gradient" x1="0.5" x2="0.5" y2="1" gradientUnits="objectBoundingBox">
      <stop offset="0" stop-color="#3017dc"/>
      <stop offset="1" stop-color="#4300ff"/>
    </linearGradient>
    <clipPath id="clip-background-login">
      <rect width="1920" height="1080"/>
    </clipPath>
  </defs>
  <g id="background-login" clip-path="url(#clip-background-login)">
    <rect width="1920" height="1080" fill="#1b1b2f"/>
    <circle id="Elipse_5" data-name="Elipse 5" cx="268.5" cy="268.5" r="268.5" transform="matrix(0.999, -0.035, 0.035, 0.999, 1461.232, -48.636)" opacity="0.38" fill="url(#linear-gradient)"/>
    <path id="Caminho_3" data-name="Caminho 3" d="M214.5,0C317.082,177.677,429,96.035,429,214.5S261.455,253.761,214.5,429,0,332.965,0,214.5,111.918-177.677,214.5,0Z" transform="translate(46 54)" opacity="0.72" fill="url(#linear-gradient)"/>
    <path id="Caminho_1" data-name="Caminho 1" d="M214.5,0C305.255,90.755,429,96.035,429,214.5S223.048,603.112,104.583,603.112s-243.807-115.637-217.7-307.057S123.745-90.755,214.5,0Z" transform="translate(977 -10)" opacity="0.9" fill="url(#linear-gradient)"/>
    <path id="Caminho_2" data-name="Caminho 2" d="M334,0C533.752,459.867,668,149.537,668,334S518.463,668,334,668,0,518.463,0,334,134.248-459.867,334,0Z" transform="translate(1405 469)" fill="url(#linear-gradient)"/>
    <path id="Caminho_6" data-name="Caminho 6" d="M489,0c671.989,115.213,659.849,416.14,489,489S759.067,978,489,978,0,759.067,0,489-182.988-115.213,489,0Z" transform="translate(-213 719)" fill="url(#linear-gradient)"/>
    <path id="Caminho_4" data-name="Caminho 4" d="M489,0C592.085-425.009,978,218.933,978,489S759.067,978,489,978,0,759.067,0,489,385.915,425.009,489,0Z" transform="translate(261 191)" opacity="0.27" fill="url(#linear-gradient)"/>
  </g>
</svg>
